<svg width="12" height="12" viewBox="0 0 12 12" fill="none" xmlns="http://www.w3.org/2000/svg">
<path d="M8.44579 2.0442C9.12028 1.74873 9.74294 1.8989 10.2882 2.05118C10.5167 2.11461 10.7725 2.18564 10.9299 2.29934C11.176 2.477 11.337 2.75099 11.3702 3.05302C11.3954 3.28148 11.3229 3.51099 11.2668 3.7297C11.1277 4.27256 10.9472 4.88293 10.3485 5.31307C10.1236 5.47468 9.77697 5.65255 9.49978 5.78575C9.2149 5.92265 8.97276 6.02674 8.94061 6.04049L5.33719 7.58823C4.91264 7.77023 4.81861 7.82042 4.75601 7.89362C4.46456 8.23438 4.4695 8.80311 4.36324 9.21759C4.30982 9.42595 4.16107 9.65463 3.99036 9.8208C3.83119 9.97573 3.54112 10.1824 3.19437 10.1104C2.83732 10.0362 2.72166 9.70741 2.68203 9.3889L2.43781 7.85695C2.4227 7.76245 2.41515 7.7152 2.39161 7.67485C2.36807 7.63449 2.33066 7.60466 2.25584 7.54499L1.03056 6.56776C0.772593 6.37587 0.539954 6.11199 0.655382 5.76383C0.767432 5.42585 1.09735 5.2817 1.30986 5.22398C1.54037 5.16137 1.81329 5.14903 2.01994 5.20675C2.43973 5.32399 2.93456 5.61282 3.38343 5.53342C3.48045 5.51626 3.57189 5.46052 3.94332 5.18912L7.10342 2.88366C7.13165 2.86299 7.34412 2.70809 7.60672 2.53308C7.86229 2.36277 8.19167 2.15552 8.44579 2.0442Z" fill="#FC45AA"/>
<path d="M6.60395 7.72482C6.40734 7.80927 6.30903 7.85149 6.26884 7.93861C6.22865 8.02573 6.26034 8.12792 6.3237 8.3323L6.94801 10.3459C7.00159 10.5187 7.10962 10.7417 7.35039 10.8357C7.59069 10.9295 7.81827 10.8382 7.96558 10.7537C8.22126 10.6071 8.43383 10.4302 8.57872 10.1859C8.72342 9.94189 8.77892 9.66731 8.78579 9.36385L8.83764 7.07348C8.84081 6.93339 8.8424 6.86334 8.79715 6.83279C8.75189 6.80223 8.68752 6.82988 8.55876 6.88519L6.60395 7.72482Z" fill="#FC45AA"/>
<path d="M4.2037 1.36879C3.92468 1.21566 3.64818 1.12249 3.35388 1.12505C3.05901 1.12761 2.78879 1.2259 2.52203 1.3802C2.36885 1.4688 2.17153 1.62419 2.13252 1.88468C2.09359 2.14469 2.23563 2.35452 2.3638 2.49277L3.77684 3.99544C3.92082 4.14855 3.9928 4.2251 4.08695 4.23387C4.1811 4.24265 4.266 4.18071 4.43578 4.05685L6.18467 2.78094C6.29901 2.69752 6.35617 2.65581 6.35265 2.60099C6.34913 2.54617 6.28709 2.51212 6.16301 2.44403L4.2037 1.36879Z" fill="#FC45AA"/>
</svg>
