<svg width="12" height="12" viewBox="0 0 12 12" fill="none" xmlns="http://www.w3.org/2000/svg">
<path fill-rule="evenodd" clip-rule="evenodd" d="M1.25012 10.875C1.25012 10.5989 1.47398 10.375 1.75012 10.375L10.2501 10.375C10.5263 10.375 10.7501 10.5989 10.7501 10.875C10.7501 11.1511 10.5263 11.375 10.2501 11.375L1.75012 11.375C1.47398 11.375 1.25012 11.1511 1.25012 10.875Z" fill="#26A195"/>
<path fill-rule="evenodd" clip-rule="evenodd" d="M3.4091 0.713547C3.71424 0.646513 4.07834 0.625 4.50012 0.625L7.50012 0.625C7.9219 0.625 8.28601 0.646513 8.59115 0.713547C8.90053 0.781513 9.17274 0.901287 9.38579 1.11433C9.59883 1.32738 9.71861 1.59959 9.78658 1.90898C9.85361 2.21412 9.87512 2.57822 9.87512 3L9.87512 11L2.12512 11L2.12512 3C2.12512 2.57822 2.14663 2.21412 2.21367 1.90898C2.28164 1.59959 2.40141 1.32738 2.61446 1.11433C2.8275 0.901287 3.09971 0.781513 3.4091 0.713547ZM4.87512 3C4.87512 2.79289 5.04302 2.625 5.25012 2.625H6.75012C6.95723 2.625 7.12512 2.79289 7.12512 3C7.12512 3.20711 6.95723 3.375 6.75012 3.375L5.25012 3.375C5.04302 3.375 4.87512 3.20711 4.87512 3ZM4.87512 4.75C4.87512 4.54289 5.04302 4.375 5.25012 4.375L6.75012 4.375C6.95723 4.375 7.12512 4.54289 7.12512 4.75C7.12512 4.95711 6.95723 5.125 6.75012 5.125L5.25012 5.125C5.04302 5.125 4.87512 4.95711 4.87512 4.75ZM4.87512 6.5C4.87512 6.29289 5.04302 6.125 5.25012 6.125L6.75012 6.125C6.95723 6.125 7.12512 6.29289 7.12512 6.5C7.12512 6.70711 6.95723 6.875 6.75012 6.875L5.25012 6.875C5.04302 6.875 4.87512 6.70711 4.87512 6.5ZM5.58346 8C5.24554 8 4.86471 8.03122 4.62016 8.32468C4.50238 8.46602 4.44513 8.63491 4.41451 8.80219C4.38405 8.96858 4.37512 9.16153 4.37512 9.375V10.875L5.12512 10.875V9.375C5.12512 9.17481 5.13418 9.03592 5.15225 8.93725C5.17015 8.83946 5.19196 8.81006 5.19633 8.80482C5.1981 8.80269 5.20032 8.80036 5.20636 8.79683C5.21345 8.79267 5.22877 8.78522 5.25798 8.77752C5.32125 8.76084 5.42108 8.75 5.58346 8.75H6.41679C6.57916 8.75 6.67899 8.76084 6.74227 8.77752C6.77147 8.78522 6.7868 8.79267 6.79389 8.79683C6.79992 8.80036 6.80214 8.80269 6.80391 8.80482C6.80828 8.81006 6.8301 8.83946 6.848 8.93725C6.86606 9.03592 6.87512 9.17481 6.87512 9.375L6.87512 10.875H7.62512L7.62512 9.375C7.62512 9.16153 7.6162 8.96858 7.58574 8.80219C7.55511 8.63491 7.49786 8.46602 7.38008 8.32468C7.13553 8.03122 6.7547 8 6.41679 8H5.58346Z" fill="#26A195"/>
</svg>
