<svg width="12" height="12" viewBox="0 0 12 12" fill="none" xmlns="http://www.w3.org/2000/svg">
<path d="M8.95 9.87584C8.85572 9.87584 8.80858 9.87584 8.77929 9.90513C8.75 9.93442 8.75 9.98156 8.75 10.0758V10.3168C8.75 10.5062 8.87037 10.6793 9.06094 10.764C9.06843 10.7674 9.0759 10.7707 9.08335 10.774C9.19899 10.8257 9.31133 10.8758 9.44529 10.8758H10.3047C10.4387 10.8758 10.551 10.8257 10.6666 10.774C10.6741 10.7707 10.6816 10.7674 10.6891 10.764C10.8796 10.6793 11 10.5062 11 10.3168V9.87244C11 9.74463 11 9.68072 10.9648 9.65077C10.9295 9.62082 10.8584 9.63244 10.716 9.65569C10.7019 9.658 10.6876 9.66011 10.6732 9.66201L9.11481 9.86827C9.07674 9.87331 9.03839 9.87584 9 9.87584H8.95Z" fill="#8E80FF"/>
<path d="M3.05 9.87594C3.14428 9.87594 3.19142 9.87594 3.22071 9.90523C3.25 9.93451 3.25 9.98165 3.25 10.0759V10.3169C3.25 10.5063 3.12962 10.6794 2.93906 10.7641C2.93157 10.7675 2.9241 10.7708 2.91664 10.7741C2.80101 10.8258 2.68867 10.8759 2.55471 10.8759H1.69529C1.56133 10.8759 1.44899 10.8258 1.33336 10.7741C1.3259 10.7708 1.31843 10.7675 1.31094 10.7641C1.12038 10.6794 1 10.5063 1 10.3169L1 9.87254C1 9.74472 1 9.68082 1.03524 9.65087C1.07048 9.62092 1.14165 9.63254 1.28398 9.65579C1.29813 9.6581 1.31239 9.66021 1.32677 9.66211L2.88519 9.86837C2.92325 9.87341 2.96161 9.87594 3 9.87594H3.05Z" fill="#8E80FF"/>
<path fill-rule="evenodd" clip-rule="evenodd" d="M1.0529 3.7765C1.17639 3.52951 1.47673 3.4294 1.72372 3.5529L2.22372 3.8029C2.47071 3.92639 2.57082 4.22673 2.44732 4.47372C2.32383 4.72071 2.02349 4.82082 1.7765 4.69732L1.2765 4.44732C1.02951 4.32383 0.929401 4.02349 1.0529 3.7765ZM10.9473 3.7765C11.0708 4.02349 10.9707 4.32383 10.7237 4.44732L10.2237 4.69732C9.97673 4.82082 9.67639 4.72071 9.5529 4.47372C9.4294 4.22673 9.52951 3.92639 9.7765 3.8029L10.2765 3.5529C10.5235 3.4294 10.8238 3.52951 10.9473 3.7765Z" fill="#8E80FF"/>
<path fill-rule="evenodd" clip-rule="evenodd" d="M10.1716 4.39782C10.3811 4.61461 10.6399 4.88249 10.8549 5.17024C11.1251 5.53188 11.375 5.98554 11.375 6.49981V8.23509C11.375 8.67374 11.0783 9.1032 10.6076 9.1655L9.0492 9.37176C9.03289 9.37392 9.01645 9.375 9 9.375L3 9.375C2.98355 9.375 2.96711 9.37392 2.9508 9.37176L1.39238 9.1655C0.921661 9.1032 0.625 8.67374 0.625 8.23509L0.625 6.49981C0.625 5.98554 0.874918 5.53188 1.14511 5.17024C1.3601 4.88249 1.61881 4.61471 1.82827 4.39792C1.87081 4.35389 1.8802 4.31538 1.90003 4.25791L2.43621 2.70423C2.53607 2.4148 2.6236 2.16111 2.72054 1.95984C2.82533 1.74227 2.9603 1.54287 3.17926 1.39043C3.39822 1.238 3.63675 1.17737 3.88358 1.15015C4.11191 1.12497 4.38875 1.12498 4.70461 1.125L7.29539 1.125C7.61124 1.12498 7.88809 1.12497 8.11642 1.15015C8.36325 1.17737 8.60178 1.238 8.82074 1.39043C9.03969 1.54287 9.17467 1.74227 9.27946 1.95984C9.3764 2.16111 9.46392 2.41479 9.56379 2.70422L10.1 4.25791C10.1187 4.31208 10.1316 4.35639 10.1716 4.39782ZM3.38985 4.125C3.19803 4.125 3.10212 4.125 3.05726 4.06206C3.0124 3.99913 3.04369 3.90846 3.10626 3.72713L3.34892 3.02399C3.45922 2.70438 3.52975 2.50223 3.60053 2.35527C3.69047 2.16853 3.7883 2.10421 3.99367 2.08156C4.1604 2.06318 4.38125 2.06247 4.73004 2.06247L7.26996 2.06247C7.61875 2.06247 7.8396 2.06318 8.00632 2.08156C8.2117 2.10421 8.30953 2.16853 8.39947 2.35527C8.47025 2.50223 8.54078 2.70438 8.65108 3.02399L8.89374 3.72713C8.95631 3.90846 8.9876 3.99913 8.94274 4.06206C8.89788 4.125 8.80197 4.125 8.61015 4.125L3.38985 4.125ZM1.66779 5.78967C1.48255 5.69705 1.25729 5.77213 1.16467 5.95738C1.07205 6.14262 1.14714 6.36787 1.33238 6.46049L2.08238 6.83549C2.26762 6.92811 2.49287 6.85303 2.58549 6.66779C2.67811 6.48255 2.60303 6.25729 2.41779 6.16467L1.66779 5.78967ZM10.6678 6.46049C10.853 6.36787 10.9281 6.14262 10.8355 5.95738C10.7429 5.77213 10.5176 5.69705 10.3324 5.78967L9.58238 6.16467C9.39713 6.25729 9.32205 6.48255 9.41467 6.66779C9.50729 6.85303 9.73254 6.92811 9.91779 6.83549L10.6678 6.46049ZM6.48462 7.5L5.51572 7.5C5.02386 7.5 4.77793 7.5 4.58747 7.63676C4.43964 7.7429 4.35153 7.91254 4.23408 8.20961C4.18249 8.34011 4.1567 8.40535 4.18638 8.45268C4.21605 8.5 4.2835 8.5 4.41841 8.5L7.58193 8.5C7.71683 8.5 7.78428 8.5 7.81396 8.45268C7.84364 8.40535 7.81784 8.34011 7.76625 8.20961C7.6488 7.91254 7.56069 7.7429 7.41286 7.63676C7.2224 7.5 6.97647 7.5 6.48462 7.5Z" fill="#8E80FF"/>
</svg>
