<svg width="16" height="16" viewBox="0 0 16 16" fill="none" xmlns="http://www.w3.org/2000/svg">
<path d="M14 7.33337V6.66671C14 4.15255 14 2.89547 13.173 2.11442C12.346 1.33337 11.015 1.33337 8.35294 1.33337L7.64706 1.33337C4.98501 1.33337 3.65399 1.33337 2.82699 2.11442C2 2.89547 2 4.15255 2 6.66671L2 9.33337C2 11.8475 2 13.1046 2.82699 13.8857C3.65398 14.6667 4.98501 14.6667 7.64706 14.6667H8" stroke="#596774" stroke-width="1.5" stroke-linecap="round"/>
<path d="M5.33331 4.66675H10.6666" stroke="#596774" stroke-width="1.5" stroke-linecap="round"/>
<path d="M5.33331 8H8.66665" stroke="#596774" stroke-width="1.5" stroke-linecap="round"/>
<path d="M14 13.7647L14 11.3334C14 10.3804 13.1046 9.33337 12 9.33337C10.8954 9.33337 10 10.3804 10 11.3334L10 13.6667C10 14.1865 10.4884 14.6667 11.0909 14.6667C11.6934 14.6667 12.1818 14.1865 12.1818 13.6667L12.1818 11.8432" stroke="#596774" stroke-width="1.5" stroke-linecap="round"/>
</svg>
