<svg width="16" height="16" viewBox="0 0 16 16" fill="none" xmlns="http://www.w3.org/2000/svg">
<path d="M8.33337 1.33334H8.51519C10.6893 1.33334 11.7764 1.33334 12.5313 1.86523C12.7476 2.01763 12.9397 2.19836 13.1016 2.40194C13.6667 3.11246 13.6667 4.13558 13.6667 6.18183V7.8788C13.6667 9.85425 13.6667 10.842 13.3541 11.6308C12.8515 12.8991 11.7886 13.8994 10.4411 14.3724C9.60296 14.6667 8.5535 14.6667 6.45459 14.6667C5.25521 14.6667 4.65552 14.6667 4.17656 14.4985C3.40657 14.2282 2.79921 13.6566 2.51202 12.9319C2.33337 12.4811 2.33337 11.9167 2.33337 10.7879V8.00001" stroke="#141B34" stroke-width="1.5" stroke-linecap="round" stroke-linejoin="round"/>
<path d="M13.6667 8C13.6667 9.2273 12.6717 10.2222 11.4444 10.2222C11.0006 10.2222 10.4773 10.1444 10.0458 10.2601C9.66232 10.3628 9.36282 10.6623 9.26008 11.0458C9.14445 11.4773 9.22222 12.0006 9.22222 12.4444C9.22222 13.6717 8.2273 14.6667 7 14.6667" stroke="#141B34" stroke-width="1.5" stroke-linecap="round" stroke-linejoin="round"/>
<path d="M3 5.00002C3.32769 5.33715 4.19985 6.66669 4.66667 6.66669M6.33333 5.00002C6.00565 5.33715 5.13349 6.66669 4.66667 6.66669M4.66667 6.66669L4.66667 1.33335" stroke="#141B34" stroke-width="1.5" stroke-linecap="round" stroke-linejoin="round"/>
</svg>
