<svg width="12" height="12" viewBox="0 0 12 12" fill="none" xmlns="http://www.w3.org/2000/svg">
<path fill-rule="evenodd" clip-rule="evenodd" d="M6.29216 1.7343C7.09993 1.12769 8.43704 0.763312 9.92753 1.67758C10.9582 2.30976 11.5381 3.6303 11.3346 5.14756C11.1301 6.67213 10.1433 8.39645 8.05351 9.94325C7.32782 10.4807 6.7952 10.8752 6.00017 10.8752C5.20514 10.8752 4.67252 10.4807 3.94684 9.94325C1.85704 8.39645 0.870245 6.67213 0.66577 5.14756C0.462278 3.6303 1.04219 2.30976 2.07281 1.67758C3.5633 0.763312 4.90042 1.12769 5.70818 1.7343C5.84107 1.8341 5.93228 1.9024 6.00017 1.94852C6.06807 1.9024 6.15927 1.8341 6.29216 1.7343ZM5.49998 4.5C5.49998 4.22386 5.72383 4 5.99998 4C6.27612 4 6.49998 4.22386 6.49998 4.5L6.49998 5.5H7.49998C7.77612 5.5 7.99998 5.72386 7.99998 6C7.99998 6.27614 7.77612 6.5 7.49998 6.5H6.49998V7.5C6.49998 7.77614 6.27612 8 5.99998 8C5.72383 8 5.49998 7.77614 5.49998 7.5V6.5H4.49998C4.22383 6.5 3.99998 6.27614 3.99998 6C3.99998 5.72386 4.22383 5.5 4.49998 5.5H5.49998L5.49998 4.5Z" fill="#1A94DB"/>
</svg>
