<svg width="16" height="16" viewBox="0 0 16 16" fill="none" xmlns="http://www.w3.org/2000/svg">
	<path d="M6.66663 12L9.33329 12" stroke="#596774" stroke-width="1.5" stroke-linecap="round" stroke-linejoin="round"/>
	<path d="M1.56757 8.80895C1.33223 7.27747 1.21455 6.51174 1.50409 5.8329C1.79363 5.15406 2.436 4.6896 3.72074 3.76069L4.68064 3.06665C6.27884 1.91109 7.07794 1.33331 7.99998 1.33331C8.92202 1.33331 9.72112 1.91109 11.3193 3.06665L12.2792 3.76069C13.564 4.6896 14.2063 5.15406 14.4959 5.8329C14.7854 6.51174 14.6677 7.27747 14.4324 8.80895L14.2317 10.1149C13.8981 12.2859 13.7313 13.3714 12.9526 14.019C12.174 14.6666 11.0358 14.6666 8.75919 14.6666H7.24077C4.9642 14.6666 3.82592 14.6666 3.04731 14.019C2.26871 13.3714 2.10189 12.2859 1.76826 10.1149L1.56757 8.80895Z" stroke="#596774" stroke-width="1.5" stroke-linejoin="round"/>
</svg>
