<svg width="12" height="12" viewBox="0 0 12 12" fill="none" xmlns="http://www.w3.org/2000/svg">
<path fill-rule="evenodd" clip-rule="evenodd" d="M1.99994 1.375C2.27608 1.375 2.49994 1.59886 2.49994 1.875L2.49994 3.92418C2.49994 4.20032 2.27608 4.42418 1.99994 4.42418C1.7238 4.42418 1.49994 4.20032 1.49994 3.92418L1.49994 1.875C1.49994 1.59886 1.7238 1.375 1.99994 1.375Z" fill="#1A94DB"/>
<path fill-rule="evenodd" clip-rule="evenodd" d="M3.99988 8.75004C3.99988 8.4739 3.77602 8.25004 3.49988 8.25004C3.22374 8.25004 2.99988 8.4739 2.99988 8.75004L2.99988 10.3251C2.99988 10.4665 2.99988 10.5373 2.95594 10.5812C2.91201 10.6251 2.8413 10.6251 2.69988 10.6251H1.49988C1.29277 10.6251 1.12488 10.4572 1.12488 10.2501L1.12488 6.44294C1.12488 6.35599 1.12488 6.31251 1.14712 6.285C1.16937 6.2575 1.21845 6.247 1.3166 6.22601C1.5481 6.1765 1.7652 6.05127 1.92777 5.8543L3.48877 3.96309C3.55424 3.88377 3.58697 3.84411 3.63117 3.84201C3.67536 3.8399 3.71172 3.87626 3.78444 3.94899L5.54347 5.70824C5.59952 5.76491 5.68238 5.8487 5.78978 5.93233C5.83297 5.96597 5.85457 5.98278 5.86472 6.00356C5.87488 6.02434 5.87488 6.04957 5.87488 6.10003L5.87488 10.2501C5.87488 10.4572 5.70698 10.6251 5.49988 10.6251H4.29988C4.15846 10.6251 4.08775 10.6251 4.04381 10.5812C3.99988 10.5373 3.99988 10.4665 3.99988 10.3251L3.99988 8.75004ZM4.00378 6.25004C4.00378 6.52619 3.78093 6.75004 3.50602 6.75004H3.50155C3.22664 6.75004 3.00378 6.52619 3.00378 6.25004C3.00378 5.9739 3.22664 5.75004 3.50155 5.75004H3.50602C3.78093 5.75004 4.00378 5.9739 4.00378 6.25004Z" fill="#1A94DB"/>
<path fill-rule="evenodd" clip-rule="evenodd" d="M6.52998 6.27479C6.56015 6.24536 6.61609 6.24675 6.72797 6.24955C6.77542 6.25074 6.81737 6.2505 6.85208 6.25031L10.6755 6.25014C10.7691 6.25013 10.8159 6.25013 10.8452 6.27937C10.8745 6.30861 10.8746 6.35523 10.8747 6.44847C10.8748 6.49986 10.8748 6.55237 10.8748 6.60599L10.8748 10.2501C10.8748 10.4572 10.7069 10.6251 10.4998 10.6251H6.72383C6.59873 10.6251 6.53617 10.6251 6.50645 10.5927C6.47672 10.5603 6.48316 10.4861 6.49602 10.3376C6.49852 10.3088 6.4998 10.2796 6.4998 10.2501L6.4998 6.46099C6.4998 6.35648 6.4998 6.30422 6.52998 6.27479ZM8.99988 8.12511C9.20698 8.12511 9.37488 7.95722 9.37488 7.75011C9.37488 7.54301 9.20698 7.37511 8.99988 7.37511L7.99988 7.37511C7.79277 7.37511 7.62488 7.54301 7.62488 7.75011C7.62488 7.95722 7.79277 8.12511 7.99988 8.12511L8.99988 8.12511Z" fill="#1A94DB"/>
<path d="M8.61479 2.00491C8.33592 1.87429 8.02461 1.87463 7.63158 1.87505L3.49995 1.8751C3.49654 1.8751 3.49314 1.87514 3.48975 1.87523C3.46684 1.87585 3.45539 1.87616 3.4532 1.87616C3.451 1.87615 3.44247 1.87589 3.42539 1.87535C3.28751 1.87102 3.14913 1.92851 3.05397 2.0438L0.732561 4.85628C0.568408 5.05516 0.595022 5.35073 0.792007 5.51647C0.988991 5.6822 1.28175 5.65533 1.4459 5.45645L3.3746 3.11976C3.4728 3.00078 3.5219 2.9413 3.58819 2.93813C3.65448 2.93497 3.70902 2.98952 3.8181 3.0986L5.97014 5.25073C6.08495 5.3662 6.20886 5.49083 6.37221 5.55849C6.53556 5.62615 6.7113 5.62564 6.87414 5.62517L11 5.6251C11.1455 5.6251 11.2778 5.54092 11.3395 5.40915C11.4013 5.27738 11.3812 5.12181 11.288 5.01003L9.34399 2.6771C9.0927 2.37489 8.89366 2.13552 8.61479 2.00491Z" fill="#1A94DB"/>
</svg>
