<svg width="16" height="16" viewBox="0 0 16 16" fill="none" xmlns="http://www.w3.org/2000/svg">
<path d="M14.6666 8.33329C14.6666 8.0057 14.6631 7.34474 14.6561 7.01618C14.6126 4.97249 14.5908 3.95065 13.8367 3.19369C13.0826 2.43674 12.0331 2.41037 9.9341 2.35763C8.64044 2.32513 7.35952 2.32513 6.06586 2.35763C3.96687 2.41036 2.91737 2.43673 2.16328 3.19368C1.4092 3.95064 1.3874 4.97248 1.34382 7.01617C1.32981 7.6733 1.32981 8.32654 1.34382 8.98367C1.38741 11.0274 1.4092 12.0492 2.16328 12.8062C2.91737 13.5631 3.96687 13.5895 6.06587 13.6422C6.60104 13.6557 7.13403 13.6635 7.66665 13.6659" stroke="#032A44" stroke-width="1.5" stroke-linecap="round" stroke-linejoin="round"/>
<path d="M1.33331 4L5.942 6.61641C7.62575 7.57231 8.37421 7.57231 10.058 6.61641L14.6666 4" stroke="#032A44" stroke-width="1.5" stroke-linejoin="round"/>
<path d="M14.6666 11.6667L9.33331 11.6667M14.6666 11.6667C14.6666 11.1998 13.3371 10.3277 13 10M14.6666 11.6667C14.6666 12.1335 13.3371 13.0056 13 13.3333" stroke="#032A44" stroke-width="1.5" stroke-linecap="round" stroke-linejoin="round"/>
</svg>
