<svg width="16" height="16" viewBox="0 0 16 16" fill="none" xmlns="http://www.w3.org/2000/svg">
<path d="M8.99996 13H8.66663C6.78101 13 5.8382 13 5.25241 12.4142C4.66663 11.8284 4.66663 10.8856 4.66663 9V7.66667M4.66663 7V7.66667M4.66663 7.66667H8.99996" stroke="#141B34" stroke-width="1.5" stroke-linecap="round" stroke-linejoin="round"/>
<path d="M9 7.66667C9 6.88099 9 6.48816 9.23431 6.24408C9.46863 6 9.84575 6 10.6 6H11.4C12.1542 6 12.5314 6 12.7657 6.24408C13 6.48816 13 6.88099 13 7.66667C13 8.45234 13 8.84518 12.7657 9.08926C12.5314 9.33333 12.1542 9.33333 11.4 9.33333H10.6C9.84575 9.33333 9.46863 9.33333 9.23431 9.08926C9 8.84518 9 8.45234 9 7.66667Z" stroke="#141B34" stroke-width="1.5"/>
<path d="M9 13C9 12.2143 9 11.8215 9.23431 11.5774C9.46863 11.3333 9.84575 11.3333 10.6 11.3333H11.4C12.1542 11.3333 12.5314 11.3333 12.7657 11.5774C13 11.8215 13 12.2143 13 13C13 13.7857 13 14.1785 12.7657 14.4226C12.5314 14.6667 12.1542 14.6667 11.4 14.6667H10.6C9.84575 14.6667 9.46863 14.6667 9.23431 14.4226C9 14.1785 9 13.7857 9 13Z" stroke="#141B34" stroke-width="1.5"/>
<path d="M4.66663 1.33334V5.33334M6.66663 3.33334L2.66663 3.33334" stroke="#032A44" stroke-width="1.5" stroke-linecap="round" stroke-linejoin="round"/>
</svg>
