<svg width="16" height="17" viewBox="0 0 16 17" fill="none" xmlns="http://www.w3.org/2000/svg">
<path d="M7.64706 15C4.98501 15 3.65398 15 2.82699 14.2189C2 13.4379 2 12.1808 2 9.66663L2 6.99996C2 4.4858 2 3.22872 2.82699 2.44767C3.65399 1.66663 4.98501 1.66663 7.64706 1.66663L8.35294 1.66663C11.015 1.66663 12.346 1.66663 13.173 2.44767C14 3.22872 14 4.4858 14 6.99996M7.66667 15H8.66667" stroke="#596774" stroke-width="1.5" stroke-linecap="round"/>
<path d="M5.33331 4.99994H10.6666" stroke="#596774" stroke-width="1.5" stroke-linecap="round"/>
<path d="M5.33331 8.33331H8.66665" stroke="#596774" stroke-width="1.5" stroke-linecap="round"/>
<path d="M11.6667 12.7263L11.0652 14.8285C11.0381 14.934 11.1426 15.0256 11.2439 14.9851L12.5676 14.4565C12.6312 14.4311 12.7021 14.4311 12.7657 14.4565L14.1021 14.9902C14.201 15.0297 14.304 14.9432 14.2821 14.8392L13.7726 12.6606M14.6667 10.9967C14.6667 9.89391 13.7713 8.99994 12.6667 8.99994C11.5621 8.99994 10.6667 9.89391 10.6667 10.9967C10.6667 12.0995 11.5621 12.9934 12.6667 12.9934C13.7713 12.9934 14.6667 12.0995 14.6667 10.9967Z" stroke="#596774" stroke-width="1.5" stroke-linejoin="round"/>
<defs>
<clipPath id="clip0_1_616">
<rect width="16" height="16" fill="white" transform="translate(0 0.333313)"/>
</clipPath>
</defs>
</svg>
