<svg width="16" height="16" viewBox="0 0 16 16" fill="none" xmlns="http://www.w3.org/2000/svg">
<g clip-path="url(#clip0_1_1646)">
<path d="M8.63167 12.6667C8.57968 13.3477 8.45053 13.7933 8.12974 14.1199C7.59276 14.6667 6.72852 14.6667 5.00004 14.6667C3.27156 14.6667 2.40732 14.6667 1.87034 14.1199C1.33337 13.5732 1.33337 12.6932 1.33337 10.9333L1.33337 7.73333C1.33337 5.97342 1.33337 5.09346 1.87034 4.54673C2.19682 4.21432 2.64427 4.08401 3.33337 4.03293" stroke="#141B34" stroke-width="1.5" stroke-linecap="round"/>
<path d="M4.99474 12.6671H5.00073" stroke="#141B34" stroke-width="2" stroke-linecap="round" stroke-linejoin="round"/>
<path d="M10.7191 1.33371L9.28102 1.33371C7.34725 1.33371 6.38036 1.33371 5.80643 1.93588C5.23251 2.53805 5.29282 3.48923 5.41344 5.3916L5.49734 6.71476C5.52507 7.15195 5.53893 7.37055 5.588 7.55288C5.77752 8.25701 6.35693 8.79353 7.08171 8.93605C7.2694 8.97296 7.4916 8.97296 7.93601 8.97296C8.55527 8.97296 8.54687 9.48442 8.54687 9.99064C8.54687 10.3834 8.54687 10.5797 8.67478 10.6472C8.8027 10.7147 8.96845 10.6057 9.29995 10.3879L11.2729 9.09144C11.402 9.00663 11.518 8.97296 11.6699 8.97296C12.4847 8.97296 12.8921 8.97296 13.2223 8.85039C14.3662 8.42569 14.4613 7.36875 14.5273 6.32701L14.5866 5.3916C14.7073 3.48923 14.7676 2.53805 14.1936 1.93588C13.6197 1.33371 12.6528 1.33371 10.7191 1.33371Z" stroke="#141B34" stroke-width="1.5" stroke-linejoin="round"/>
<path d="M9.22289 5.61942C7.61728 4.47657 9.99961 3.33371 9.99961 3.33371C9.99961 3.33371 12.3832 4.47657 10.7776 5.61942M9.22289 5.61942H10.7776M9.22289 5.61942L8.8339 7.33371M10.7776 5.61942L11.3215 7.33371" stroke="#141B34" stroke-width="1.5" stroke-linecap="round" stroke-linejoin="round"/>
</g>
<defs>
<clipPath id="clip0_1_1646">
<rect width="16" height="16" fill="white"/>
</clipPath>
</defs>
</svg>
