<svg width="16" height="17" viewBox="0 0 16 17" fill="none" xmlns="http://www.w3.org/2000/svg">
<path d="M10.3333 8.33333C10.3333 9.622 9.28862 10.6667 7.99996 10.6667C6.71129 10.6667 5.66663 9.622 5.66663 8.33333C5.66663 7.04467 6.71129 6 7.99996 6C9.28862 6 10.3333 7.04467 10.3333 8.33333Z" stroke="#596774" stroke-width="1.5"/>
<path d="M13.6923 9.8393C14.2306 9.61248 14.4998 9.49907 14.5832 9.37339C14.6666 9.24771 14.6666 9.04667 14.6666 8.64457V8.02216C14.6666 7.62003 14.6666 7.41896 14.5832 7.29327C14.4998 7.16759 14.2306 7.05421 13.6923 6.82746C12.6831 6.40238 12.048 5.34275 12.1675 4.26624C12.2335 3.67214 12.2664 3.37509 12.1983 3.24159C12.1302 3.1081 11.9553 3.00884 11.6057 2.81033L11.0357 2.4867C10.6896 2.29017 10.5165 2.19191 10.3666 2.20206C10.2166 2.2122 9.98805 2.38651 9.53087 2.73513C8.63581 3.41766 7.36519 3.41763 6.47013 2.73507C6.01297 2.38645 5.78439 2.21213 5.63445 2.20199C5.48451 2.19184 5.31144 2.29011 4.9653 2.48664L4.3953 2.81026C4.04571 3.00875 3.87092 3.10799 3.80278 3.24146C3.73464 3.37493 3.76756 3.67202 3.8334 4.26619C3.95268 5.34276 3.31713 6.40243 2.30768 6.8275C1.76937 7.05418 1.50022 7.16751 1.41677 7.29321C1.33331 7.4189 1.33331 7.61999 1.33331 8.02216V8.64457C1.33331 9.04671 1.33331 9.24777 1.41675 9.37346C1.50019 9.49914 1.76935 9.61252 2.30767 9.83927C3.31686 10.2644 3.95191 11.324 3.83243 12.4005C3.76649 12.9946 3.73352 13.2916 3.80166 13.4251C3.8698 13.5586 4.04461 13.6579 4.39425 13.8564L4.96425 14.18C5.31043 14.3766 5.48352 14.4749 5.63348 14.4647C5.78345 14.4545 6.01197 14.2802 6.46901 13.9315C7.36465 13.2483 8.63635 13.2482 9.53199 13.9315C9.98905 14.2801 10.2176 14.4545 10.3675 14.4646C10.5175 14.4748 10.6906 14.3765 11.0368 14.18L11.6068 13.8563C11.9564 13.6578 12.1313 13.5585 12.1994 13.425C12.2676 13.2915 12.2345 12.9945 12.1685 12.4005C12.0488 11.324 12.6834 10.2644 13.6923 9.8393Z" stroke="#596774" stroke-width="1.5" stroke-linecap="round"/>
</svg>
