<svg width="16" height="17" viewBox="0 0 16 17" fill="none" xmlns="http://www.w3.org/2000/svg">
<path d="M13.8493 12.3333C14.3488 12.3333 14.7462 12.019 15.1029 11.5794C15.8332 10.6796 14.6342 9.96054 14.1768 9.60838C13.712 9.25039 13.1929 9.04759 12.6666 8.99998M11.9999 7.66665C12.9204 7.66665 13.6666 6.92045 13.6666 5.99998C13.6666 5.07951 12.9204 4.33331 11.9999 4.33331" stroke="#596774" stroke-width="1.5" stroke-linecap="round"/>
<path d="M2.1506 12.3333C1.65106 12.3333 1.25374 12.019 0.89699 11.5794C0.166685 10.6796 1.36574 9.96054 1.82306 9.60838C2.28794 9.25039 2.80701 9.04759 3.33329 8.99998M3.66663 7.66665C2.74615 7.66665 1.99996 6.92045 1.99996 5.99998C1.99996 5.07951 2.74615 4.33331 3.66663 4.33331" stroke="#596774" stroke-width="1.5" stroke-linecap="round"/>
<path d="M5.38916 10.4075C4.70798 10.8287 2.92195 11.6887 4.00976 12.765C4.54115 13.2907 5.13297 13.6667 5.87704 13.6667H10.1229C10.8669 13.6667 11.4588 13.2907 11.9902 12.765C13.078 11.6887 11.2919 10.8287 10.6108 10.4075C9.01339 9.41976 6.98653 9.41976 5.38916 10.4075Z" stroke="#596774" stroke-width="1.5" stroke-linecap="round" stroke-linejoin="round"/>
<path d="M10.3333 5.33333C10.3333 6.622 9.28862 7.66667 7.99996 7.66667C6.71129 7.66667 5.66663 6.622 5.66663 5.33333C5.66663 4.04467 6.71129 3 7.99996 3C9.28862 3 10.3333 4.04467 10.3333 5.33333Z" stroke="#596774" stroke-width="1.5"/>
<defs>
<clipPath id="clip0_1_620">
<rect width="16" height="16" fill="white" transform="translate(0 0.333313)"/>
</clipPath>
</defs>
</svg>
