<svg width="6" height="6" viewBox="0 0 6 6" fill="none" xmlns="http://www.w3.org/2000/svg">
<path d="M4.92477 2.31334L2.92477 0.313335C2.73144 0.120002 2.41144 0.120002 2.2181 0.313335L0.218105 2.31334C0.0247715 2.50667 0.0247715 2.82667 0.218105 3.02C0.411438 3.21333 0.731438 3.21333 0.924771 3.02L2.07144 1.87334V5.33333C2.07144 5.60667 2.2981 5.83333 2.57144 5.83333C2.84477 5.83333 3.07144 5.60667 3.07144 5.33333V1.87334L4.2181 3.02C4.3181 3.12 4.44477 3.16667 4.57144 3.16667C4.6981 3.16667 4.82477 3.12 4.92477 3.02C5.1181 2.82667 5.1181 2.50667 4.92477 2.31334Z" fill="#16A34A"/>
</svg>
