<svg width="16" height="16" viewBox="0 0 16 16" fill="none" xmlns="http://www.w3.org/2000/svg">
<path d="M14.3626 7.36336C14.5653 7.64758 14.6666 7.78968 14.6666 8.00004C14.6666 8.2104 14.5653 8.3525 14.3626 8.63672C13.4519 9.91375 11.1261 12.6667 7.99998 12.6667C4.87383 12.6667 2.54804 9.91375 1.63734 8.63672C1.43466 8.3525 1.33331 8.2104 1.33331 8.00004C1.33331 7.78968 1.43466 7.64758 1.63734 7.36336C2.54804 6.08634 4.87383 3.33337 7.99998 3.33337C11.1261 3.33337 13.4519 6.08633 14.3626 7.36336Z" stroke="#032A44" stroke-width="1.5"/>
<path d="M10 8C10 6.89543 9.10457 6 8 6C6.89543 6 6 6.89543 6 8C6 9.10457 6.89543 10 8 10C9.10457 10 10 9.10457 10 8Z" stroke="#032A44" stroke-width="1.5"/>
</svg>
