<svg width="16" height="16" viewBox="0 0 16 16" fill="none" xmlns="http://www.w3.org/2000/svg">
<path d="M14 7.33331V6.66665C14 4.15249 14 2.89541 13.173 2.11436C12.346 1.33331 11.015 1.33331 8.35294 1.33331L7.64706 1.33331C4.98501 1.33331 3.65399 1.33331 2.82699 2.11436C2 2.89541 2 4.15249 2 6.66665L2 9.33331C2 11.8475 2 13.1045 2.82699 13.8856C3.65398 14.6666 4.98501 14.6666 7.64706 14.6666H8" stroke="white" stroke-width="1.5" stroke-linecap="round"/>
<path d="M5.33331 4.66663H10.6666" stroke="white" stroke-width="1.5" stroke-linecap="round"/>
<path d="M5.33331 8H8.66665" stroke="white" stroke-width="1.5" stroke-linecap="round"/>
<path d="M14 13.7647L14 11.3333C14 10.3804 13.1046 9.33331 12 9.33331C10.8954 9.33331 10 10.3804 10 11.3333L10 13.6666C10 14.1864 10.4884 14.6666 11.0909 14.6666C11.6934 14.6666 12.1818 14.1864 12.1818 13.6666L12.1818 11.8431" stroke="white" stroke-width="1.5" stroke-linecap="round"/>
</svg>
